<svg width="17" height="15" viewBox="0 0 17 15" fill="none" xmlns="http://www.w3.org/2000/svg">
<path d="M0.578125 6.13234C0.53125 6.49827 0.5 6.8703 0.5 7.24842C0.5 10.5723 2.36563 13.4662 5.12813 15L5.64375 13.9388V6.69038L5.07188 6.13234H0.578125ZM16.5 6.69038C16.5 6.13234 15.9281 5.5743 15.3562 5.5743H10.7844C11.0688 4.45822 11.3562 3.34519 11.3562 2.78715C11.3562 1.67107 10.7844 0.55804 10.5 0.277495C10.4937 0.271397 10.2156 0 9.64375 0C8.7875 0 8.7875 0.835536 8.7875 0.835536C8.7875 0.850783 8.50313 2.22911 8.50313 2.78715C8.50313 3.34519 7.35938 5.5743 6.7875 6.13234L6.21562 6.40984V14.2163L6.7875 14.4938H13.0719C14.2156 14.4938 14.7875 13.9358 14.7875 13.3777C14.7875 12.8197 14.2156 12.2616 13.6438 12.2616C14.7875 12.2616 15.3594 11.7036 15.3594 11.1456C15.3594 10.5875 14.7875 10.0295 14.2156 10.0295C15.3594 10.0295 15.9312 9.47144 15.9312 8.9134C15.9312 8.35536 15.3594 7.79732 14.7875 7.79732C15.9281 7.80647 16.5 7.24842 16.5 6.69038Z" fill="white"/>
</svg>
