<svg width="18" height="18" viewBox="0 0 18 18" fill="none" xmlns="http://www.w3.org/2000/svg">
<path d="M12 15.5C10.8112 15.5011 9.64507 15.1751 8.62915 14.5578C7.61322 13.9405 6.78669 13.0556 6.24 12H12V10H5.58C5.53 9.67 5.5 9.34 5.5 9C5.5 8.66 5.53 8.33 5.58 8H12V6H6.24C6.78766 4.94519 7.61441 4.06098 8.63012 3.4438C9.64582 2.82662 10.8115 2.50015 12 2.5C13.61 2.5 15.09 3.09 16.23 4.07L18 2.3C16.3534 0.81747 14.2157 -0.00199669 12 3.65354e-06C8.08 3.65354e-06 4.76 2.51 3.52 6H0V8H3.06C2.97901 8.66421 2.97901 9.3358 3.06 10H0V12H3.52C4.76 15.49 8.08 18 12 18C14.31 18 16.41 17.13 18 15.7L16.22 13.93C15.09 14.91 13.62 15.5 12 15.5Z" fill="url(#paint0_linear_3466_94136)"/>
<defs>
<linearGradient id="paint0_linear_3466_94136" x1="6.5" y1="3" x2="16.5" y2="15.5" gradientUnits="userSpaceOnUse">
<stop stopColor="#FFCA28"/>
<stop offset="1" stopColor="#E2A610"/>
</linearGradient>
</defs>
</svg>
