<svg width="48" height="48" viewBox="0 0 48 48" fill="none" xmlns="http://www.w3.org/2000/svg">
<path d="M4 9H44V39H4V9Z" fill="#E8EAF6"/>
<path d="M29.9992 34H32.7992L27.7992 29L24.9992 31.8L29.9992 36.8V34ZM17.9992 34H15.1992L20.1992 29L22.9992 31.8L17.9992 36.8V34Z" fill="#5C6BC0"/>
<path d="M11 15H37V19H11V15ZM24 23C21.2 23 19 25.2 19 28C19 30.8 21.2 33 24 33C26.8 33 29 30.8 29 28C29 25.2 26.8 23 24 23ZM24 31C22.3 31 21 29.7 21 28C21 26.3 22.3 25 24 25C25.7 25 27 26.3 27 28C27 29.7 25.7 31 24 31Z" fill="#9FA8DA"/>
<path d="M3 8V40H45V8H3ZM43 35C41.3 35 40 36.3 40 38H8C8 36.3 6.7 35 5 35V13C6.7 13 8 11.7 8 10H40C40 11.7 41.3 13 43 13V35Z" fill="#9FA8DA"/>
</svg>
