<svg width="146" height="209" viewBox="0 0 146 209" fill="none" xmlns="http://www.w3.org/2000/svg">
<g filter="url(#filter0_d_202_1331)">
<rect x="15" y="15" width="111" height="169" fill="white"/>
</g>
<path d="M52.0408 123.13C52.0408 123.13 53.0068 123.13 54.9388 123.13C57.3748 123.13 58.5928 124.073 58.5928 125.958C58.5928 126.406 58.4715 126.803 58.2288 127.148C57.9861 127.484 57.7155 127.717 57.4168 127.848C57.8368 127.969 58.1915 128.217 58.4808 128.59C58.7795 128.954 58.9288 129.402 58.9288 129.934C58.9288 130.905 58.6208 131.661 58.0048 132.202C57.3888 132.734 56.3668 133 54.9388 133H52.0408V123.13ZM54.2108 125.048V126.98H54.9388C55.5455 126.98 55.9748 126.915 56.2268 126.784C56.4881 126.653 56.6188 126.378 56.6188 125.958C56.6188 125.575 56.4928 125.328 56.2408 125.216C55.9888 125.104 55.5548 125.048 54.9388 125.048H54.2108ZM54.2108 128.912V131.082H54.9388C55.6201 131.082 56.1288 130.998 56.4648 130.83C56.8008 130.662 56.9688 130.363 56.9688 129.934C56.9688 129.523 56.7915 129.253 56.4368 129.122C56.0915 128.982 55.5921 128.912 54.9388 128.912H54.2108ZM60.9834 124.404C61.9447 123.443 63.1441 122.962 64.5814 122.962C66.0187 122.962 67.2134 123.443 68.1654 124.404C69.1267 125.356 69.6074 126.579 69.6074 128.072C69.6074 129.565 69.1267 130.793 68.1654 131.754C67.2134 132.706 66.0187 133.182 64.5814 133.182C63.1441 133.182 61.9447 132.706 60.9834 131.754C60.0221 130.793 59.5414 129.565 59.5414 128.072C59.5414 126.579 60.0221 125.356 60.9834 124.404ZM66.6534 125.958C66.1027 125.407 65.4121 125.132 64.5814 125.132C63.7507 125.132 63.0601 125.407 62.5094 125.958C61.9587 126.509 61.6834 127.213 61.6834 128.072C61.6834 128.931 61.9587 129.635 62.5094 130.186C63.0601 130.737 63.7507 131.012 64.5814 131.012C65.4121 131.012 66.1027 130.737 66.6534 130.186C67.2041 129.635 67.4794 128.931 67.4794 128.072C67.4794 127.213 67.2041 126.509 66.6534 125.958ZM70.4431 123.13H72.8791L77.2471 129.78V123.13H79.4311V133H76.9951L72.6131 126.336V133H70.4431V123.13ZM88.1926 130.074C88.1926 131.101 87.838 131.875 87.1286 132.398C86.4286 132.921 85.4486 133.182 84.1886 133.182C83.7406 133.182 83.2973 133.14 82.8586 133.056C82.4293 132.981 82.0606 132.888 81.7526 132.776C81.454 132.664 81.1833 132.557 80.9406 132.454C80.7073 132.342 80.53 132.244 80.4086 132.16L80.2406 132.048L81.2906 130.326C81.4026 130.401 81.5566 130.494 81.7526 130.606C81.9486 130.709 82.3173 130.849 82.8586 131.026C83.4 131.203 83.8993 131.292 84.3566 131.292C85.4206 131.292 85.9526 130.895 85.9526 130.102C85.9526 129.785 85.766 129.523 85.3926 129.318C85.0193 129.103 84.562 128.926 84.0206 128.786C83.4886 128.646 82.952 128.487 82.4106 128.31C81.8786 128.123 81.426 127.843 81.0526 127.47C80.6793 127.087 80.4926 126.611 80.4926 126.042C80.4926 125.053 80.8613 124.292 81.5986 123.76C82.3453 123.219 83.2366 122.948 84.2726 122.948C84.7113 122.948 85.1406 122.995 85.5606 123.088C85.99 123.172 86.3446 123.279 86.6246 123.41C86.914 123.541 87.166 123.671 87.3806 123.802C87.6046 123.933 87.7726 124.04 87.8846 124.124L88.0386 124.264L87.0306 125.888C86.9373 125.813 86.802 125.72 86.6246 125.608C86.4566 125.496 86.1113 125.347 85.5886 125.16C85.0753 124.973 84.576 124.88 84.0906 124.88C83.596 124.88 83.246 125.001 83.0406 125.244C82.8353 125.477 82.7326 125.729 82.7326 126C82.7326 126.187 82.868 126.355 83.1386 126.504C83.4093 126.644 83.7453 126.765 84.1466 126.868C84.548 126.961 84.9866 127.092 85.4626 127.26C85.9386 127.419 86.3773 127.601 86.7786 127.806C87.18 128.011 87.516 128.31 87.7866 128.702C88.0573 129.094 88.1926 129.551 88.1926 130.074ZM48.7185 144.13H50.8885H51.9805C53.3432 144.13 54.3559 144.415 55.0185 144.984C55.6905 145.553 56.0265 146.314 56.0265 147.266C56.0265 148.218 55.6905 148.983 55.0185 149.562C54.3559 150.131 53.3432 150.416 51.9805 150.416H50.8885V154H48.7185V144.13ZM50.8885 146.048V148.498H51.9805C52.6899 148.498 53.2125 148.409 53.5485 148.232C53.8939 148.045 54.0665 147.723 54.0665 147.266C54.0665 146.809 53.8939 146.491 53.5485 146.314C53.2125 146.137 52.6899 146.048 51.9805 146.048H50.8885ZM56.867 144.13H59.037V152.082H62.887V154H56.867V144.13ZM66.8438 144.13H69.3638L73.1298 154H70.7778L70.1198 152.222H66.0878L65.4298 154H63.0778L66.8438 144.13ZM68.1038 146.762L66.8018 150.304H69.4058L68.1038 146.762ZM73.7654 144.13H76.2014L80.5694 150.78V144.13H82.7534V154H80.3174L75.9354 147.336V154H73.7654V144.13ZM91.5149 151.074C91.5149 152.101 91.1602 152.875 90.4509 153.398C89.7509 153.921 88.7709 154.182 87.5109 154.182C87.0629 154.182 86.6195 154.14 86.1809 154.056C85.7515 153.981 85.3829 153.888 85.0749 153.776C84.7762 153.664 84.5055 153.557 84.2629 153.454C84.0295 153.342 83.8522 153.244 83.7309 153.16L83.5629 153.048L84.6129 151.326C84.7249 151.401 84.8789 151.494 85.0749 151.606C85.2709 151.709 85.6395 151.849 86.1809 152.026C86.7222 152.203 87.2215 152.292 87.6789 152.292C88.7429 152.292 89.2749 151.895 89.2749 151.102C89.2749 150.785 89.0882 150.523 88.7149 150.318C88.3415 150.103 87.8842 149.926 87.3429 149.786C86.8109 149.646 86.2742 149.487 85.7329 149.31C85.2009 149.123 84.7482 148.843 84.3749 148.47C84.0015 148.087 83.8149 147.611 83.8149 147.042C83.8149 146.053 84.1835 145.292 84.9209 144.76C85.6675 144.219 86.5589 143.948 87.5949 143.948C88.0335 143.948 88.4629 143.995 88.8829 144.088C89.3122 144.172 89.6669 144.279 89.9469 144.41C90.2362 144.541 90.4882 144.671 90.7029 144.802C90.9269 144.933 91.0949 145.04 91.2069 145.124L91.3609 145.264L90.3529 146.888C90.2595 146.813 90.1242 146.72 89.9469 146.608C89.7789 146.496 89.4335 146.347 88.9109 146.16C88.3975 145.973 87.8982 145.88 87.4129 145.88C86.9182 145.88 86.5682 146.001 86.3629 146.244C86.1575 146.477 86.0549 146.729 86.0549 147C86.0549 147.187 86.1902 147.355 86.4609 147.504C86.7315 147.644 87.0675 147.765 87.4689 147.868C87.8702 147.961 88.3089 148.092 88.7849 148.26C89.2609 148.419 89.6995 148.601 90.1009 148.806C90.5022 149.011 90.8382 149.31 91.1089 149.702C91.3796 150.094 91.5149 150.551 91.5149 151.074Z" fill="#277C45"/>
<path d="M39.3027 66.1206C39.1211 67.5599 39 69.0232 39 70.5105C39 83.5843 46.2293 94.9669 56.934 101L58.932 96.826V68.3155L56.716 66.1206H39.3027ZM101 68.3155C101 66.1206 98.784 63.9256 96.568 63.9256H78.852C79.9539 59.5357 81.068 55.1578 81.068 52.9628C81.068 48.5729 78.852 44.195 77.75 43.0915C77.7258 43.0675 76.648 42 74.432 42C71.1141 42 71.1141 45.2864 71.1141 45.2864C71.1141 45.3464 70.0121 50.7678 70.0121 52.9628C70.0121 55.1578 65.5801 63.9256 63.3641 66.1206L61.148 67.212V97.9175L63.3641 99.0089H87.716C92.148 99.0089 94.3641 96.814 94.3641 94.619C94.3641 92.4241 92.148 90.2291 89.932 90.2291C94.3641 90.2291 96.5801 88.0342 96.5801 85.8392C96.5801 83.6442 94.3641 81.4493 92.148 81.4493C96.5801 81.4493 98.7961 79.2543 98.7961 77.0594C98.7961 74.8644 96.5801 72.6694 94.3641 72.6694C98.784 72.7054 101 70.5105 101 68.3155Z" fill="#277C45"/>
<defs>
<filter id="filter0_d_202_1331" x="0" y="0" width="151" height="209" filterUnits="userSpaceOnUse" color-interpolation-filters="sRGB">
<feFlood flood-opacity="0" result="BackgroundImageFix"/>
<feColorMatrix in="SourceAlpha" type="matrix" values="0 0 0 0 0 0 0 0 0 0 0 0 0 0 0 0 0 0 127 0" result="hardAlpha"/>
<feOffset dx="5" dy="5"/>
<feGaussianBlur stdDeviation="10"/>
<feComposite in2="hardAlpha" operator="out"/>
<feColorMatrix type="matrix" values="0 0 0 0 0 0 0 0 0 0 0 0 0 0 0 0 0 0 0.15 0"/>
<feBlend mode="normal" in2="BackgroundImageFix" result="effect1_dropShadow_202_1331"/>
<feBlend mode="normal" in="SourceGraphic" in2="effect1_dropShadow_202_1331" result="shape"/>
</filter>
</defs>
</svg>
