<svg width="18" height="26" viewBox="0 0 18 26" fill="none" xmlns="http://www.w3.org/2000/svg">
<path d="M10.1109 25.3783C12.5156 22.1577 18 14.352 18 9.9676C18 4.65012 13.9688 0.335938 9 0.335938C4.03125 0.335938 0 4.65012 0 9.9676C0 14.352 5.48438 22.1577 7.88906 25.3783C8.46562 26.1458 9.53438 26.1458 10.1109 25.3783ZM9 13.1782C7.34531 13.1782 6 11.7384 6 9.9676C6 8.19678 7.34531 6.75705 9 6.75705C10.6547 6.75705 12 8.19678 12 9.9676C12 11.7384 10.6547 13.1782 9 13.1782Z" fill="#277C45"/>
</svg>
