<svg width="146" height="209" viewBox="0 0 146 209" fill="none" xmlns="http://www.w3.org/2000/svg">
<g filter="url(#filter0_d_202_1334)">
<rect x="15" y="15" width="111" height="169" fill="white"/>
</g>
<path d="M25.5779 144V134.13H27.7479H32.4099V136.048H27.7479V138.498H31.9479V140.416H27.7479V144H25.5779ZM34.6572 135.404C35.6186 134.443 36.8179 133.962 38.2552 133.962C39.6926 133.962 40.8872 134.443 41.8392 135.404C42.8006 136.356 43.2812 137.579 43.2812 139.072C43.2812 140.565 42.8006 141.793 41.8392 142.754C40.8872 143.706 39.6926 144.182 38.2552 144.182C36.8179 144.182 35.6186 143.706 34.6572 142.754C33.6959 141.793 33.2152 140.565 33.2152 139.072C33.2152 137.579 33.6959 136.356 34.6572 135.404ZM40.3272 136.958C39.7766 136.407 39.0859 136.132 38.2552 136.132C37.4246 136.132 36.7339 136.407 36.1832 136.958C35.6326 137.509 35.3572 138.213 35.3572 139.072C35.3572 139.931 35.6326 140.635 36.1832 141.186C36.7339 141.737 37.4246 142.012 38.2552 142.012C39.0859 142.012 39.7766 141.737 40.3272 141.186C40.8779 140.635 41.1532 139.931 41.1532 139.072C41.1532 138.213 40.8779 137.509 40.3272 136.958ZM44.117 134.13H46.287H47.379C48.7416 134.13 49.7543 134.415 50.417 134.984C51.089 135.553 51.425 136.314 51.425 137.266C51.425 138.554 50.8696 139.455 49.759 139.968L51.803 144H49.577L47.939 140.402C47.8176 140.411 47.631 140.416 47.379 140.416H46.287V144H44.117V134.13ZM46.287 136.048V138.498H47.379C48.0883 138.498 48.611 138.409 48.947 138.232C49.2923 138.045 49.465 137.723 49.465 137.266C49.465 136.809 49.2923 136.491 48.947 136.314C48.611 136.137 48.0883 136.048 47.379 136.048H46.287ZM52.6482 134.13H55.0842L58.2202 139.324L61.3842 134.13H63.8202V144H61.6502V137.658L58.2202 143.23L54.8182 137.658V144H52.6482V134.13ZM68.2169 134.13H70.7369L74.5029 144H72.1509L71.4929 142.222H67.4609L66.8029 144H64.4509L68.2169 134.13ZM69.4769 136.762L68.1749 140.304H70.7789L69.4769 136.762ZM73.6657 134.13H81.3937V136.048H78.6077V144H76.4377V136.048H73.6657V134.13ZM82.0291 134.13H84.1991V144H82.0291V134.13ZM86.4463 135.404C87.4076 134.443 88.607 133.962 90.0443 133.962C91.4816 133.962 92.6763 134.443 93.6283 135.404C94.5896 136.356 95.0703 137.579 95.0703 139.072C95.0703 140.565 94.5896 141.793 93.6283 142.754C92.6763 143.706 91.4816 144.182 90.0443 144.182C88.607 144.182 87.4076 143.706 86.4463 142.754C85.485 141.793 85.0043 140.565 85.0043 139.072C85.0043 137.579 85.485 136.356 86.4463 135.404ZM92.1163 136.958C91.5656 136.407 90.875 136.132 90.0443 136.132C89.2136 136.132 88.523 136.407 87.9723 136.958C87.4216 137.509 87.1463 138.213 87.1463 139.072C87.1463 139.931 87.4216 140.635 87.9723 141.186C88.523 141.737 89.2136 142.012 90.0443 142.012C90.875 142.012 91.5656 141.737 92.1163 141.186C92.667 140.635 92.9423 139.931 92.9423 139.072C92.9423 138.213 92.667 137.509 92.1163 136.958ZM95.906 134.13H98.342L102.71 140.78V134.13H104.894V144H102.458L98.076 137.336V144H95.906V134.13ZM113.656 141.074C113.656 142.101 113.301 142.875 112.592 143.398C111.892 143.921 110.912 144.182 109.652 144.182C109.204 144.182 108.76 144.14 108.322 144.056C107.892 143.981 107.524 143.888 107.216 143.776C106.917 143.664 106.646 143.557 106.404 143.454C106.17 143.342 105.993 143.244 105.872 143.16L105.704 143.048L106.754 141.326C106.866 141.401 107.02 141.494 107.216 141.606C107.412 141.709 107.78 141.849 108.322 142.026C108.863 142.203 109.362 142.292 109.82 142.292C110.884 142.292 111.416 141.895 111.416 141.102C111.416 140.785 111.229 140.523 110.856 140.318C110.482 140.103 110.025 139.926 109.484 139.786C108.952 139.646 108.415 139.487 107.874 139.31C107.342 139.123 106.889 138.843 106.516 138.47C106.142 138.087 105.956 137.611 105.956 137.042C105.956 136.053 106.324 135.292 107.062 134.76C107.808 134.219 108.7 133.948 109.736 133.948C110.174 133.948 110.604 133.995 111.024 134.088C111.453 134.172 111.808 134.279 112.088 134.41C112.377 134.541 112.629 134.671 112.844 134.802C113.068 134.933 113.236 135.04 113.348 135.124L113.502 135.264L112.494 136.888C112.4 136.813 112.265 136.72 112.088 136.608C111.92 136.496 111.574 136.347 111.052 136.16C110.538 135.973 110.039 135.88 109.554 135.88C109.059 135.88 108.709 136.001 108.504 136.244C108.298 136.477 108.196 136.729 108.196 137C108.196 137.187 108.331 137.355 108.602 137.504C108.872 137.644 109.208 137.765 109.61 137.868C110.011 137.961 110.45 138.092 110.926 138.26C111.402 138.419 111.84 138.601 112.242 138.806C112.643 139.011 112.979 139.31 113.25 139.702C113.52 140.094 113.656 140.551 113.656 141.074Z" fill="#277C45"/>
<path d="M92.8982 78.0687C92.9942 77.8693 93.0439 77.6497 93.0432 77.4271C93.0426 77.2046 92.9916 76.9853 92.8944 76.7865L91.0994 74.091C91.0657 74.0408 91.047 73.9829 91.047 73.9172C91.047 73.8516 91.0657 73.7937 91.0994 73.7435L92.8982 71.0402C92.9942 70.8409 93.0439 70.6213 93.0432 70.3987C93.0426 70.1762 92.9916 69.9568 92.8944 69.7581C92.8198 69.5488 92.7022 69.3586 92.5495 69.2007C92.3968 69.0427 92.2128 68.9206 92.01 68.8429L88.9259 67.6805C88.869 67.6605 88.8182 67.6253 88.7787 67.5785C88.7392 67.5317 88.7124 67.4749 88.7011 67.414V64.1663C88.6892 63.9365 88.6258 63.7127 88.5159 63.5123C88.4061 63.312 88.2527 63.1406 88.0678 63.0116C87.8128 62.832 87.511 62.7364 87.2022 62.7374H86.5651L83.3798 63.587C83.2945 63.6224 83.1991 63.6224 83.1138 63.587L81.0565 61.0768C80.9062 60.9085 80.7238 60.7742 80.5206 60.6823C80.3174 60.5904 80.0979 60.543 79.876 60.543C79.6541 60.543 79.4347 60.5904 79.2315 60.6823C79.0283 60.7742 78.8458 60.9085 78.6956 61.0768L76.6346 63.587C76.5492 63.6224 76.4539 63.6224 76.3685 63.587H76.3722L72.9996 62.6988H72.5949C72.2826 62.6978 71.9771 62.7933 71.718 62.973C71.5347 63.1025 71.3826 63.2735 71.2735 63.473C71.1644 63.6725 71.1011 63.8951 71.0885 64.1238V67.3715C71.0777 67.4326 71.0516 67.4896 71.0128 67.537C70.9741 67.5845 70.9239 67.6206 70.8674 67.6419L67.7908 68.8004C67.4389 68.8596 67.1187 69.0453 66.8869 69.3245C66.655 69.6037 66.5266 69.9584 66.5241 70.3258C66.5241 70.5575 66.5766 70.7776 66.6703 70.9707L68.4653 73.6662C68.499 73.7164 68.5178 73.7744 68.5178 73.84C68.5178 73.9057 68.499 73.9636 68.4653 74.0138L66.6666 76.717C66.5705 76.9164 66.5208 77.136 66.5215 77.3585C66.5221 77.5811 66.5731 77.8004 66.6703 77.9991C66.7449 78.2084 66.8625 78.3986 67.0152 78.5566C67.1679 78.7146 67.3519 78.8366 67.5547 78.9144L70.6388 80.0768C70.6957 80.0968 70.7465 80.132 70.786 80.1788C70.8255 80.2256 70.8523 80.2823 70.8636 80.3432V83.591C70.8755 83.8208 70.9389 84.0446 71.0488 84.2449C71.1586 84.4452 71.312 84.6166 71.4969 84.7457C71.7561 84.9253 72.0615 85.0208 72.3738 85.0199H73.0034L74.165 84.7495V98.9995L79.8985 91.2759L85.4072 98.9995V84.7495L86.5688 85.0585H87.011C87.3234 85.0594 87.6288 84.9639 87.8879 84.7843C88.0712 84.6548 88.2233 84.4837 88.3324 84.2842C88.4416 84.0847 88.5049 83.8621 88.5175 83.6335V80.3857C88.5282 80.3247 88.5543 80.2676 88.5931 80.2202C88.6319 80.1728 88.682 80.1366 88.7386 80.1154L91.8152 78.9569C92.05 78.9091 92.2705 78.8048 92.4587 78.6524C92.6469 78.5001 92.7975 78.304 92.8982 78.0802V78.0687Z" fill="#277C45"/>
<path d="M40 41.9785V87.0655H70.5L70.0806 86.8776C69.5376 86.5111 69.087 86.027 68.7632 85.4624C68.4394 84.8977 68.251 84.2675 68.2125 83.6201V83.3082H43.8125V45.7358H97.1875V83.3082H91.7356V83.6088C91.6986 84.2554 91.5125 84.8853 91.1914 85.4504C90.8704 86.0155 90.4228 86.501 89.8827 86.8701L89.5625 87.0655H101V41.9785H40Z" fill="#277C45"/>
<path d="M68.3834 64.719C68.3955 64.0543 68.5655 63.4019 68.8792 62.8158C69.1929 62.2296 69.6415 61.7264 70.1879 61.3476C70.2911 61.3205 70.3992 61.318 70.5035 61.3401H51.9346V65.0532H68.3834V64.719ZM64.6332 68.7662H51.9346V72.4793H64.4104C64.1547 72.0059 64.0066 71.482 63.9764 70.9448C63.9462 70.4077 64.0348 69.8705 64.2359 69.3715C64.2951 69.1302 64.4353 68.9165 64.6332 68.7662ZM51.9346 53.9141H89.065V57.6271H51.9346V53.9141Z" fill="#277C45"/>
<defs>
<filter id="filter0_d_202_1334" x="0" y="0" width="151" height="209" filterUnits="userSpaceOnUse" color-interpolation-filters="sRGB">
<feFlood flood-opacity="0" result="BackgroundImageFix"/>
<feColorMatrix in="SourceAlpha" type="matrix" values="0 0 0 0 0 0 0 0 0 0 0 0 0 0 0 0 0 0 127 0" result="hardAlpha"/>
<feOffset dx="5" dy="5"/>
<feGaussianBlur stdDeviation="10"/>
<feComposite in2="hardAlpha" operator="out"/>
<feColorMatrix type="matrix" values="0 0 0 0 0 0 0 0 0 0 0 0 0 0 0 0 0 0 0.15 0"/>
<feBlend mode="normal" in2="BackgroundImageFix" result="effect1_dropShadow_202_1334"/>
<feBlend mode="normal" in="SourceGraphic" in2="effect1_dropShadow_202_1334" result="shape"/>
</filter>
</defs>
</svg>
